Coordinates
version=1
nRows=6
nColumns=36
inDegrees=yes

Units are S.I. units (second, meters, Newtons, ...)
If the header above contains a line with 'inDegrees', this indicates whether rotational values are in degrees (yes) or radians (no).

endheader
time	pelvis_tilt	pelvis_list	pelvis_rotation	pelvis_tx	pelvis_ty	pelvis_tz	hip_flexion_r	hip_adduction_r	hip_rotation_r	knee_angle_r	knee_angle_r_beta	ankle_angle_r	subtalar_angle_r	mtp_angle_r	hip_flexion_l	hip_adduction_l	hip_rotation_l	knee_angle_l	knee_angle_l_beta	ankle_angle_l	subtalar_angle_l	mtp_angle_l	lumbar_extension	lumbar_bending	lumbar_rotation	arm_flex_r	arm_add_r	arm_rot_r	elbow_flex_r	pro_sup_r	arm_flex_l	arm_add_l	arm_rot_l	elbow_flex_l	pro_sup_l
      3.85000000	     -4.11325851	      1.83691804	      3.09106374	      0.40914649	      1.13997396	     -0.03349544	      9.20812437	     -6.46985603	     -5.47171939	     12.45350564	      0.21735468	    -23.80806497	      2.87154295	     -7.49999987	     10.75711312	     -6.05026038	     -0.40878595	     15.85080752	      0.27664878	    -17.40770408	      2.31196213	     -7.49999987	     -0.18133544	     -3.05869381	      6.57410466	    160.55447076	    -55.16188756	     96.65984420	    116.91569605	     86.27498873	    120.43639189	    -43.33748820	     55.02122509	    110.49973667	     91.46919703
      3.86666670	     -3.61694414	      1.37936038	      3.06781151	      0.40376398	      1.08944358	     -0.03561304	      9.49421750	     -6.06150001	     -3.03075516	     14.24299150	      0.24858710	    -21.11361361	      2.34380487	     -7.49999987	     10.99454880	     -6.37993883	     -0.82337113	     16.47404451	      0.28752632	    -16.48444061	      2.23564075	     -7.49999987	     -1.22075724	     -2.72324048	      6.48057989	    159.28928849	    -58.14935464	     94.43670228	    119.89318084	     85.80659737	    119.83733433	    -43.09639629	     55.49550366	    112.31182442	     91.11738576
      3.88333330	     -2.96370005	      0.92468439	      3.68184611	      0.40355423	      1.04570653	     -0.03488833	     10.22228365	     -5.48086727	     -0.54004330	     18.61743670	      0.32493557	    -12.39726664	      0.73695192	     -7.49999987	     11.47507437	     -6.66323007	     -1.38840741	     19.28256995	      0.33654433	    -11.69653679	      0.43116487	     -7.49999987	     -2.54129223	     -2.52120930	      5.88842113	    157.11591972	    -60.13659159	     93.18648608	    120.81238668	     84.68887958	    118.60779088	    -42.57301560	     54.95421832	    113.68279494	     89.52212681
      3.90000000	     -2.04100616	      0.78767124	      3.31904881	      0.40714223	      0.99740319	     -0.03705650	     12.38832481	     -4.86600647	      2.11833336	     26.48814791	      0.46230539	      0.26173565	     -3.04429442	     -7.49999987	     13.38758489	     -6.54540228	     -0.19128309	     26.72703947	      0.46647484	     -1.11397828	     -2.28864932	     -7.49999987	     -4.31349441	     -3.19072349	      6.31137443	    154.90939015	    -67.48298248	     88.72531698	    126.39830505	     90.07014492	    117.84118363	    -41.45207297	     52.37695478	    115.74649680	     95.00731018
      3.91666670	     -1.49140219	      0.61442825	      2.87501542	      0.39909888	      0.96273154	     -0.03467381	     15.72943129	     -4.07254251	      3.95844511	     35.04493971	      0.61164958	     11.99826490	     -6.45183670	     -7.49999987	     16.23631476	     -7.03252334	      0.46714580	     34.88372529	      0.60883586	      9.04891233	     -4.23585153	     -7.49999987	     -6.59596077	     -4.29892922	      8.22017565	    154.58434480	    -78.50997510	     85.80646865	    132.94085882	     88.48143269	    116.16221829	    -38.93475466	     50.54429278	    116.69662211	     93.71869683
      3.93333330	     -1.19257674	      0.22697701	      2.07661690	      0.39128942	      0.92929823	     -0.03229192	     20.53899675	     -2.65693626	      5.41106284	     45.08266186	      0.78684088	     21.95422384	     -8.76292031	     -7.49999987	     21.17942141	     -8.05173457	      1.31561739	     45.89862293	      0.80108209	     18.44571848	     -5.14037626	     -7.49999987	     -8.87853165	     -4.93091714	     11.25148853	    154.37234117	    -89.08361506	     83.50240474	    139.45613581	     88.31025770	    110.59875086	    -36.25253900	     46.56764943	    117.77430646	     94.94081565
